<?xml version="1.0" encoding="utf-8"?><!-- Uploaded to: SVG Repo, www.svgrepo.com, Generator: SVG Repo Mixer Tools -->
<svg version="1.1" id="Uploaded to svgrepo.com" xmlns="http://www.w3.org/2000/svg" xmlns:xlink="http://www.w3.org/1999/xlink" 
	 width="800px" height="800px" viewBox="0 0 32 32" xml:space="preserve">
<style type="text/css">
	.feather_een{fill:#216c97;}
</style>
<path class="feather_een" d="M30,12h-1.634c-0.214-0.663-0.485-1.3-0.798-1.911l1.16-1.16c0.781-0.781,0.781-2.047,0-2.828
	l-2.828-2.828c-0.391-0.391-0.902-0.586-1.414-0.586s-1.024,0.195-1.414,0.586l-1.16,1.16C21.3,4.118,20.663,3.848,20,3.634V2
	c0-1.105-0.895-2-2-2h-4c-1.105,0-2,0.895-2,2v1.634c-0.663,0.214-1.3,0.485-1.911,0.798l-1.16-1.16
	C8.538,2.882,8.027,2.686,7.515,2.686S6.491,2.882,6.101,3.272L3.272,6.1c-0.781,0.781-0.781,2.047,0,2.828l1.16,1.16
	C4.118,10.7,3.848,11.337,3.634,12H2c-1.105,0-2,0.895-2,2v4c0,1.105,0.895,2,2,2h1.634c0.214,0.663,0.485,1.3,0.798,1.911
	l-1.16,1.16c-0.781,0.781-0.781,2.047,0,2.828l2.828,2.828c0.391,0.391,0.902,0.586,1.414,0.586s1.024-0.195,1.414-0.586l1.16-1.16
	c0.612,0.313,1.248,0.584,1.911,0.798V30c0,1.105,0.895,2,2,2h4c1.105,0,2-0.895,2-2v-1.634c0.663-0.214,1.3-0.485,1.911-0.798
	l1.16,1.16c0.391,0.391,0.902,0.586,1.414,0.586s1.024-0.195,1.414-0.586l2.828-2.828c0.781-0.781,0.781-2.047,0-2.828l-1.16-1.16
	c0.313-0.612,0.584-1.248,0.798-1.911H30c1.105,0,2-0.895,2-2v-4C32,12.895,31.105,12,30,12z M31,18c0,0.551-0.449,1-1,1h-1.634
	h-0.728l-0.224,0.692c-0.189,0.585-0.437,1.178-0.737,1.763l-0.332,0.648l0.515,0.515l1.16,1.16c0.39,0.39,0.39,1.024,0,1.414
	l-2.828,2.828c-0.189,0.189-0.44,0.293-0.707,0.293c-0.267,0-0.518-0.104-0.707-0.293l-1.16-1.16l-0.515-0.515l-0.648,0.332
	c-0.585,0.3-1.179,0.548-1.763,0.737L19,27.639v0.728V30c0,0.551-0.449,1-1,1h-4c-0.551,0-1-0.449-1-1v-1.634v-0.728l-0.692-0.224
	c-0.585-0.189-1.178-0.437-1.763-0.737l-0.648-0.332l-0.515,0.515l-1.16,1.16c-0.189,0.189-0.44,0.293-0.707,0.293
	c-0.267,0-0.518-0.104-0.707-0.293l-2.828-2.828c-0.39-0.39-0.39-1.024,0-1.414l1.16-1.16l0.515-0.515l-0.332-0.648
	c-0.3-0.585-0.548-1.179-0.737-1.763L4.361,19H3.634H2c-0.551,0-1-0.449-1-1v-4c0-0.551,0.449-1,1-1h1.634h0.728l0.224-0.692
	c0.189-0.584,0.437-1.178,0.737-1.763l0.332-0.648L5.139,9.381l-1.16-1.16C3.79,8.033,3.686,7.782,3.686,7.515
	c0-0.267,0.104-0.518,0.293-0.707l2.828-2.828c0.189-0.189,0.44-0.293,0.707-0.293c0.267,0,0.518,0.104,0.707,0.293l1.16,1.16
	l0.515,0.515l0.648-0.332c0.585-0.3,1.179-0.548,1.763-0.737L13,4.361V3.634V2c0-0.551,0.449-1,1-1h4c0.551,0,1,0.449,1,1v1.634
	v0.728l0.692,0.224c0.585,0.189,1.178,0.437,1.763,0.737l0.648,0.332l0.515-0.515l1.16-1.16c0.189-0.189,0.44-0.293,0.707-0.293
	c0.267,0,0.518,0.104,0.707,0.293l2.828,2.828c0.189,0.189,0.293,0.44,0.293,0.707c0,0.267-0.104,0.518-0.293,0.707l-1.16,1.16
	l-0.515,0.515l0.332,0.648c0.3,0.586,0.548,1.179,0.737,1.763L27.639,13h0.728H30c0.551,0,1,0.449,1,1V18z M16,11
	c-2.761,0-5,2.239-5,5s2.239,5,5,5s5-2.239,5-5S18.761,11,16,11z M16,20c-2.206,0-4-1.794-4-4c0-2.206,1.794-4,4-4s4,1.794,4,4
	C20,18.206,18.206,20,16,20z M16,13c-1.657,0-3,1.343-3,3s1.343,3,3,3s3-1.343,3-3S17.657,13,16,13z M16,18c-1.103,0-2-0.897-2-2
	c0-1.103,0.897-2,2-2s2,0.897,2,2C18,17.103,17.103,18,16,18z"/>
</svg>