<?xml version="1.0" encoding="utf-8"?><!-- Uploaded to: SVG Repo, www.svgrepo.com, Generator: SVG Repo Mixer Tools -->
<svg version="1.1" id="Uploaded to svgrepo.com" xmlns="http://www.w3.org/2000/svg" xmlns:xlink="http://www.w3.org/1999/xlink" 
	 width="800px" height="800px" viewBox="0 0 32 32" xml:space="preserve">
<style type="text/css">
	.puchipuchi_een{fill:#111918;}
</style>
<path class="puchipuchi_een" d="M29,13h-1.393c-0.283-1.098-0.715-2.134-1.278-3.087l0.985-0.985c0.389-0.389,0.389-1.025,0-1.414
	l-2.828-2.828c-0.389-0.389-1.025-0.389-1.414,0l-0.985,0.985C21.134,5.108,20.098,4.677,19,4.393V3c0-0.55-0.45-1-1-1h-4
	c-0.55,0-1,0.45-1,1v1.393c-1.098,0.283-2.134,0.715-3.087,1.278L8.929,4.687c-0.389-0.389-1.025-0.389-1.414,0L4.687,7.515
	c-0.389,0.389-0.389,1.025,0,1.414l0.985,0.985C5.108,10.866,4.677,11.902,4.393,13H3c-0.55,0-1,0.45-1,1v4c0,0.55,0.45,1,1,1h1.393
	c0.283,1.098,0.715,2.134,1.278,3.087l-0.985,0.985c-0.389,0.389-0.389,1.025,0,1.414l2.828,2.828c0.389,0.389,1.025,0.389,1.414,0
	l0.985-0.985c0.953,0.563,1.988,0.995,3.087,1.278V29c0,0.55,0.45,1,1,1h4c0.55,0,1-0.45,1-1v-1.393
	c1.098-0.283,2.134-0.715,3.087-1.278l0.985,0.985c0.389,0.389,1.025,0.389,1.414,0l2.828-2.828c0.389-0.389,0.389-1.025,0-1.414
	l-0.985-0.985c0.563-0.953,0.995-1.988,1.278-3.087H29c0.55,0,1-0.45,1-1v-4C30,13.45,29.55,13,29,13z M16,22c-3.314,0-6-2.686-6-6
	s2.686-6,6-6s6,2.686,6,6S19.314,22,16,22z M16,11c-2.761,0-5,2.239-5,5s2.239,5,5,5s5-2.239,5-5S18.761,11,16,11z M16,19
	c-1.654,0-3-1.346-3-3c0-1.654,1.346-3,3-3s3,1.346,3,3C19,17.654,17.654,19,16,19z"/>
</svg>